# xmcd CD database file
#
# Track frame offsets:
#	187
#	19890
#	28302
#	40287
#	58462
#	73427
#	98675
#	115597
#	131647
#	152410
#	177072
#
# Disc length: 2561 seconds
#
# Revision: 0
# Processed by: cddbd v1.5.1PL0 Copyright (c) Steve Scherf et al.
# Submitted via: CDex 1.51
#
DISCID=9809ff0b
DTITLE=The Star Club - Solid Fist
DYEAR=1900
DGENRE=Punk
TTITLE0=Solid Fist
TTITLE1=Harmless Rock
TTITLE2=Blank Culture
TTITLE3=Distortion Town
TTITLE4=Shocking Thrilling Something
TTITLE5=Platinnum
TTITLE6=Beat The Boots
TTITLE7=Rising Sun
TTITLE8=New Gate
TTITLE9=Caution
TTITLE10=Your Turn
EXTD=
EXTT0=
EXTT1=
EXTT2=
EXTT3=
EXTT4=
EXTT5=
EXTT6=
EXTT7=
EXTT8=
EXTT9=
EXTT10=
PLAYORDER=
